<svg xmlns="http://www.w3.org/2000/svg" version="1.1" xmlns:xlink="http://www.w3.org/1999/xlink" xmlns:svgjs="http://svgjs.dev/svgjs" width="1500" height="761" viewBox="0 0 1500 761"><g transform="matrix(1,0,0,1,-0.9090909090909918,-1.3690262120736065)"><svg viewBox="0 0 396 201" data-background-color="#ffffff" preserveAspectRatio="xMidYMid meet" height="761" width="1500" xmlns="http://www.w3.org/2000/svg" xmlns:xlink="http://www.w3.org/1999/xlink"><g id="tight-bounds" transform="matrix(1,0,0,1,0.2400000000000091,0.3615956223742387)"><svg viewBox="0 0 395.52 200.27680875525152" height="200.27680875525152" width="395.52"><g><svg viewBox="0 0 395.52 200.27680875525152" height="200.27680875525152" width="395.52"><g><svg viewBox="0 0 395.52 200.27680875525152" height="200.27680875525152" width="395.52"><g transform="matrix(1,0,0,1,0,123.77910251782697)"><svg viewBox="0 0 395.52 76.49770623742455" height="76.49770623742455" width="395.52"><g id="textblocktransform"><svg viewBox="0 0 395.52 76.49770623742455" height="76.49770623742455" width="395.52" id="textblock"><g><svg viewBox="0 0 395.52 76.49770623742455" height="76.49770623742455" width="395.52"><g transform="matrix(1,0,0,1,0,0)"><svg width="395.52" viewBox="0.7 -37.7 198.78 38.45" height="76.49770623742455" data-palette-color="#000000"><path d="M28.5-34.55L34.4-34.55 29.55 0 21.2 0 17.5-27.8 13.65 0 5.45 0 0.7-34.55 6.85-34.55 10.05-5.1 14.2-34.55 20.95-34.55 25-5.1 28.5-34.55ZM47.35-27.15Q52.35-27.15 55.12-23.65 57.9-20.15 57.9-13.25L57.9-13.25Q57.9-6.65 55.1-2.95 52.3 0.75 47.35 0.75L47.35 0.75Q42.4 0.75 39.6-2.88 36.8-6.5 36.8-13.25L36.8-13.25Q36.8-19.95 39.6-23.55 42.4-27.15 47.35-27.15L47.35-27.15ZM47.35-22.5Q45.2-22.5 44.2-20.38 43.2-18.25 43.2-13.25L43.2-13.25Q43.2-8.2 44.2-6.08 45.2-3.95 47.35-3.95L47.35-3.95Q49.5-3.95 50.5-6.08 51.5-8.2 51.5-13.25L51.5-13.25Q51.5-18.3 50.5-20.4 49.5-22.5 47.35-22.5L47.35-22.5ZM74.09-27.1Q75.25-27.1 76.15-26.75L76.15-26.75 75.15-20.85Q74.15-21.1 73.3-21.1L73.3-21.1Q71.4-21.1 70.3-19.45 69.2-17.8 68.59-14.55L68.59-14.55 68.59 0 62.45 0 62.45-26.45 67.8-26.45 68.25-21.85Q70.09-27.1 74.09-27.1L74.09-27.1ZM78.99-37.05L85.14-37.7 85.14 0 78.99 0 78.99-37.05ZM92.49-26.45L98.49-26.45 91.49-14.75 99.09 0 92.49 0 85.39-14.45 92.49-26.45ZM107.24 0.75Q104.54 0.75 102.97-0.93 101.39-2.6 101.39-5.4L101.39-5.4 101.39-37.05 107.54-37.7 107.54-5.65Q107.54-5 107.84-4.6 108.14-4.2 108.74-4.2L108.74-4.2Q109.09-4.2 109.42-4.3 109.74-4.4 109.84-4.4L109.84-4.4 111.04-0.2Q109.34 0.75 107.24 0.75L107.24 0.75ZM130.99-6.4Q130.99-5.1 131.34-4.48 131.69-3.85 132.49-3.45L132.49-3.45 131.24 0.65Q129.19 0.4 127.96-0.45 126.74-1.3 126.14-3.05L126.14-3.05Q123.84 0.75 119.69 0.75L119.69 0.75Q116.39 0.75 114.44-1.48 112.49-3.7 112.49-7.4L112.49-7.4Q112.49-11.7 115.16-13.95 117.84-16.2 122.94-16.2L122.94-16.2 124.99-16.2 124.99-18.05Q124.99-20.55 124.11-21.58 123.24-22.6 121.29-22.6L121.29-22.6Q118.94-22.6 115.44-21.3L115.44-21.3 114.04-25.3Q116.04-26.2 118.19-26.68 120.34-27.15 122.29-27.15L122.29-27.15Q130.99-27.15 130.99-18.35L130.99-18.35 130.99-6.4ZM121.34-3.7Q123.74-3.7 124.99-7L124.99-7 124.99-12.55 123.54-12.55Q120.99-12.55 119.81-11.4 118.64-10.25 118.64-7.85L118.64-7.85Q118.64-5.8 119.34-4.75 120.04-3.7 121.34-3.7L121.34-3.7ZM149.14-27.15Q151.99-27.15 153.64-25.1 155.29-23.05 155.29-19.6L155.29-19.6 155.29 0 149.14 0 149.14-18.9Q149.14-20.8 148.61-21.63 148.09-22.45 147.09-22.45L147.09-22.45Q144.99-22.45 142.94-18.5L142.94-18.5 142.94 0 136.79 0 136.79-26.45 142.14-26.45 142.59-23Q143.94-25.1 145.46-26.13 146.99-27.15 149.14-27.15L149.14-27.15ZM170.33-27.15Q172.48-27.15 174.23-26.43 175.98-25.7 177.58-24.15L177.58-24.15 174.93-20.65Q173.83-21.55 172.86-21.98 171.88-22.4 170.73-22.4L170.73-22.4Q168.48-22.4 167.33-20.28 166.18-18.15 166.18-13.1L166.18-13.1Q166.18-8.2 167.36-6.2 168.53-4.2 170.73-4.2L170.73-4.2Q171.83-4.2 172.73-4.6 173.63-5 174.83-5.85L174.83-5.85 177.58-2.3Q174.38 0.75 170.43 0.75L170.43 0.75Q165.33 0.75 162.51-2.73 159.68-6.2 159.68-13L159.68-13Q159.68-17.4 160.98-20.6 162.28-23.8 164.71-25.48 167.13-27.15 170.33-27.15L170.33-27.15ZM199.48-13.85Q199.48-13.4 199.33-11.3L199.33-11.3 185.68-11.3Q185.88-7.2 187.11-5.58 188.33-3.95 190.58-3.95L190.58-3.95Q192.13-3.95 193.38-4.48 194.63-5 196.08-6.15L196.08-6.15 198.63-2.65Q195.13 0.75 190.23 0.75L190.23 0.75Q185.03 0.75 182.26-2.85 179.48-6.45 179.48-13L179.48-13Q179.48-19.55 182.13-23.35 184.78-27.15 189.63-27.15L189.63-27.15Q194.28-27.15 196.88-23.78 199.48-20.4 199.48-13.85L199.48-13.85ZM193.48-15.3L193.48-15.65Q193.48-19.4 192.58-21.13 191.68-22.85 189.68-22.85L189.68-22.85Q187.83-22.85 186.86-21.18 185.88-19.5 185.68-15.3L185.68-15.3 193.48-15.3Z" opacity="1" transform="matrix(1,0,0,1,0,0)" fill="#000000" class="wordmark-text-0" data-fill-palette-color="primary" id="text-0"></path></svg></g></svg></g></svg></g></svg></g><g transform="matrix(1,0,0,1,145.07628470663983,0)"><svg viewBox="0 0 105.36743058672033 105.71983002012074" height="105.71983002012074" width="105.36743058672033"><g><svg xmlns="http://www.w3.org/2000/svg" xmlns:xlink="http://www.w3.org/1999/xlink" version="1.1" x="0" y="0" viewBox="2.2 2 59.8 60" style="enable-background:new 0 0 64 64;" xml:space="preserve" height="105.71983002012074" width="105.36743058672033" class="icon-icon-0" data-fill-palette-color="accent" id="icon-0"><path d="M46 46C46 47.1 46.9 48 48 48V44C46.9 44 46 44.9 46 46" fill="#000000" data-fill-palette-color="accent"></path><path d="M50 54C51.1 54 52 53.1 52 52S51.1 50 50 50z" fill="#000000" data-fill-palette-color="accent"></path><path d="M49 36C41.8 36 36 41.8 36 49S41.8 62 49 62 62 56.2 62 49 56.2 36 49 36M54 52C54 54.2 52.2 56 50 56V58H48V56C45.8 56 44 54.2 44 52H46C46 53.1 46.9 54 48 54V50C45.8 50 44 48.2 44 46S45.8 42 48 42V40H50V42C52.2 42 54 43.8 54 46H52C52 44.9 51.1 44 50 44V48C52.2 48 54 49.8 54 52" fill="#000000" data-fill-palette-color="accent"></path><path d="M34 49C34 45.8 35 42.9 36.7 40.4L32.8 39.2C32 37.1 31.7 34.7 31.9 31.9L32.1 31.7C34.5 29.6 35.9 26.6 35.9 23.3V23C37 23 37.9 22.1 37.9 21V11.9C37.9 10.8 37.3 9.7 36.2 9.2L36 9C36 7 36 5 32.1 5H15.9C15.4 5 15 4.9 14.6 4.7L10 2V10C10 12.8 12.2 15 15 15H33C33.6 15 34 15.4 34 16V23.4C34 26 32.9 28.5 30.9 30.2L28.5 32.2C28 32.7 27.3 32.9 26.5 32.9H25.5C24.8 32.9 24.1 32.6 23.5 32.2L21.1 30.2C19.1 28.5 18 26 18 23.4V17H15C14.7 17 14.3 17 14 16.9V21C14 22.1 14.9 23 16 23V23.4C16 26.6 17.4 29.7 19.8 31.8L20 32C20.2 34.7 19.9 37.1 19.2 39.2L8.8 42C6 42.7 3.9 45.1 3.6 48L2.2 62H41.5C37 59.4 34 54.6 34 49M21.1 39.8C21.9 37.8 22.2 36.1 22.1 33.7L22.2 33.8C23.1 34.6 24.3 35 25.5 35H26.5C27.7 35 28.8 34.6 29.8 33.8L29.9 33.7C29.8 36.1 30.1 37.8 30.9 39.8 27.5 44 24.5 44 21.1 39.8" fill="#000000" data-fill-palette-color="accent"></path></svg></g></svg></g><g></g></svg></g></svg></g><defs></defs></svg><rect width="395.52" height="200.27680875525152" fill="none" stroke="none" visibility="hidden"></rect></g></svg></g></svg>